<svg width="1920" height="3207" viewBox="0 0 1920 3207" fill="none" xmlns="http://www.w3.org/2000/svg">
<path fill-rule="evenodd" clip-rule="evenodd" d="M0 0H1920V3207H0V0ZM1676.96 1407.17C1669.5 1393.48 1659.23 1383.06 1646.17 1375.91C1633.11 1368.76 1617.87 1365.18 1600.45 1365.18C1581.17 1365.18 1564.06 1369.53 1549.14 1378.24C1534.21 1386.95 1522.55 1399.39 1514.15 1415.56C1505.75 1431.74 1501.55 1450.4 1501.55 1471.54C1501.55 1493.32 1505.75 1512.29 1514.15 1528.46C1522.86 1544.63 1534.83 1557.07 1550.07 1565.78C1565.31 1574.49 1583.04 1578.84 1603.25 1578.84C1628.13 1578.84 1648.5 1572.31 1664.36 1559.25C1680.23 1545.88 1690.65 1527.37 1695.62 1503.73H1583.66V1453.82H1760V1510.73C1755.65 1533.44 1746.32 1554.43 1732.01 1573.71C1717.7 1592.99 1699.2 1608.54 1676.49 1620.36C1654.1 1631.87 1628.91 1637.62 1600.92 1637.62C1569.51 1637.62 1541.05 1630.63 1515.55 1616.63C1490.36 1602.32 1470.45 1582.57 1455.83 1557.38C1441.53 1532.19 1434.37 1503.58 1434.37 1471.54C1434.37 1439.51 1441.53 1410.9 1455.83 1385.71C1470.45 1360.2 1490.36 1340.45 1515.55 1326.46C1541.05 1312.15 1569.35 1305 1600.45 1305C1637.15 1305 1669.03 1314.02 1696.09 1332.06C1723.15 1349.79 1741.81 1374.82 1752.07 1407.17H1676.96ZM1339.04 1634.82H1404.35V1308.73H1339.04V1532.66L1191.16 1308.73H1125.85V1634.82H1191.16V1411.36L1339.04 1634.82ZM1079.98 1309.2V1634.82H1014.67V1309.2H1079.98ZM830.571 1507.93L902.414 1634.82H977.989L900.081 1502.8C924.651 1496.27 943.156 1484.45 955.596 1467.35C968.036 1449.93 974.257 1430.49 974.257 1409.03C974.257 1390.37 969.747 1373.58 960.728 1358.65C952.02 1343.41 938.802 1331.44 921.074 1322.73C903.347 1313.71 881.887 1309.2 856.696 1309.2H734.47V1634.82H799.781V1507.93H830.571ZM854.363 1458.95H799.781V1363.31H854.363C872.091 1363.31 885.308 1367.51 894.017 1375.91C902.725 1384 907.079 1395.5 907.079 1410.43C907.079 1425.67 902.725 1437.64 894.017 1446.35C885.308 1454.75 872.091 1458.95 854.363 1458.95ZM492.226 1309.2V1510.73C492.226 1532.81 497.979 1549.76 509.487 1561.58C520.994 1573.09 537.166 1578.84 558.004 1578.84C579.152 1578.84 595.48 1573.09 606.988 1561.58C618.495 1549.76 624.249 1532.81 624.249 1510.73V1309.2H690.027V1510.26C690.027 1537.94 683.962 1561.43 671.833 1580.71C660.014 1599.68 643.998 1613.99 623.782 1623.63C603.878 1633.27 581.641 1638.09 557.071 1638.09C532.812 1638.09 510.731 1633.27 490.826 1623.63C471.233 1613.99 455.682 1599.68 444.175 1580.71C432.668 1561.43 426.914 1537.94 426.914 1510.26V1309.2H492.226ZM398.854 1361.91V1309.2H160V1361.91H246.771V1634.82H312.083V1361.91H398.854Z" fill="#201F1F"/>
</svg>
