<svg width="25" height="25" viewBox="0 0 25 25" fill="none" xmlns="http://www.w3.org/2000/svg">
<path d="M12.5 0C5.6075 0 0 5.6075 0 12.5C0 19.3925 5.6075 25 12.5 25C19.3925 25 25 19.3925 25 12.5C25 5.6075 19.3925 0 12.5 0ZM12.5 22.5C6.98625 22.5 2.5 18.0138 2.5 12.5C2.5 6.98625 6.98625 2.5 12.5 2.5C18.0138 2.5 22.5 6.98625 22.5 12.5C22.5 18.0138 18.0138 22.5 12.5 22.5Z" fill="white" fill-opacity="0.7"/>
<path d="M11.25 11.2501H13.75V18.7501H11.25V11.2501ZM11.25 6.25012H13.75V8.75012H11.25V6.25012Z" fill="white" fill-opacity="0.7"/>
</svg>
