<svg width="38" height="38" viewBox="0 0 38 38" fill="none" xmlns="http://www.w3.org/2000/svg">
<path d="M18.9998 3.16669C10.2693 3.16669 3.1665 10.2695 3.1665 19C3.1665 27.7305 10.2693 34.8334 18.9998 34.8334C27.7303 34.8334 34.8332 27.7305 34.8332 19C34.8332 10.2695 27.7303 3.16669 18.9998 3.16669ZM18.9998 31.6667C12.0158 31.6667 6.33317 25.9841 6.33317 19C6.33317 12.0159 12.0158 6.33335 18.9998 6.33335C25.9839 6.33335 31.6665 12.0159 31.6665 19C31.6665 25.9841 25.9839 31.6667 18.9998 31.6667Z" fill="white" fill-opacity="0.57"/>
<path d="M17.4165 17.4166H20.5832V26.9166H17.4165V17.4166ZM17.4165 11.0833H20.5832V14.25H17.4165V11.0833Z" fill="white" fill-opacity="0.57"/>
</svg>
