<svg width="26" height="26" viewBox="0 0 26 26" fill="none" xmlns="http://www.w3.org/2000/svg">
<path d="M25 11.2001V13.0001C25 18.6569 25 21.4853 23.242 23.2421C21.4864 25.0002 18.6568 25.0002 13 25.0002C7.34321 25.0002 4.5148 25.0002 2.7568 23.2421C1 21.4865 1 18.6569 1 13.0001C1 7.34333 1 4.51493 2.7568 2.75692C4.516 1.00012 7.34321 1.00012 13 1.00012H14.8" stroke="white" stroke-width="1.875" stroke-linecap="round"/>
<path d="M18.5824 2.74615L19.3612 1.96735C19.9809 1.34785 20.8213 0.999888 21.6975 1C22.5737 1.00011 23.414 1.34829 24.0334 1.96795C24.6529 2.5876 25.0009 3.42796 25.0008 4.30417C25.0007 5.18038 24.6525 6.02066 24.0328 6.64015L23.2528 7.41895C23.2528 7.41895 21.5992 7.32175 20.14 5.86135C18.6796 4.40215 18.5824 2.74735 18.5824 2.74735L11.4244 9.90416C10.9396 10.389 10.6972 10.6314 10.4884 10.899C10.242 11.215 10.0324 11.5542 9.85963 11.9166C9.71443 12.2226 9.60643 12.5478 9.38923 13.1982L8.69443 15.2802M8.69443 15.2802L8.24563 16.6266C8.19284 16.7836 8.18491 16.9522 8.22273 17.1135C8.26054 17.2748 8.3426 17.4223 8.45968 17.5395C8.57675 17.6567 8.72421 17.739 8.88545 17.7769C9.0467 17.8149 9.21535 17.8072 9.37243 17.7546L10.72 17.3058M8.69443 15.2802L10.72 17.3058M23.254 7.41775L16.096 14.5758C15.6112 15.0606 15.3688 15.303 15.1012 15.5118C14.7858 15.7576 14.4446 15.9684 14.0836 16.1406C13.7776 16.2858 13.4524 16.3938 12.802 16.611L10.72 17.3058" stroke="white" stroke-width="1.875"/>
</svg>
